# xmcd
#
# Track frame offsets: 
#        197
#        13462
#        24015
#        37435
#        53055
#        66997
#        78027
#        90142
#        101732
#        112995
#        126407
#        139155
#        148702
#
# Disc length: 2113 seconds
#
# Revision: 5
# Processed by: cddbd v1.5.2PL0 Copyright (c) Steve Scherf et al.
# Submitted via: ExactAudioCopyFreeDBPlugin 1.0
#
DISCID=af083f0d
DTITLE=Various Artist - A Christmas Gift for You (from Phil Spector)
DYEAR=1963
DGENRE=Holiday
TTITLE0=Darlene Love - White Christmas
TTITLE1=The Ronettes - Frosty the Snowman
TTITLE2=Bob B. Soxx and The Blue Jeans - The Bells of St. Mary
TTITLE3=The Crystals - Santa Claus is Coming to Town
TTITLE4=The Ronettes - Sleigh Ride
TTITLE5=Darlene Love - Marshmallow World
TTITLE6=The Ronettes - I Saw Mommy Kissing Santa Claus
TTITLE7=The Crystals - Rudolph the Red-Nosed Reindeer
TTITLE8=Darlene Love - Winter Wonderland
TTITLE9=The Crystals - Parade of the Wooden Soldiers
TTITLE10=Darlene Love - Christmas (Baby Please Come Home)
TTITLE11=Bob B. Soxx and The Blue Jeans - Here Comes Santa Claus
TTITLE12=Phil Spector and Artists - Silent Night
EXTD=YEAR: 1963
EXTT0=Yesterday: 21.12.2001
EXTT1=
EXTT2=Yesterday: 19.12.1997
EXTT3=
EXTT4=Yesterday: 20.12.2002
EXTT5=
EXTT6=
EXTT7=Yesterday: 19.12.1997
EXTT8=
EXTT9=Yesterday: 17.12.1999
EXTT10=
EXTT11=
EXTT12=
PLAYORDER=
